Patient4_TMGait_0pt4_01_left_35_GRF.mot
version=1
nRows=38
nColumns=19
inDegrees=no
endheader
time	F1x	F1y	F1z	M1x	M1y	M1z	F2x	F2y	F2z	M2x	M2y	M2z	EC1x	EC1y	EC1z	EC2x	EC2y	EC2z
43.45	2.7907	11.3475	1.9325	-3.4899	-2.4161	14.9337	-29.3745	715.1595	-61.2101	250.1406	83.8861	804.7982	-0.0592	0.0182	-0.0073	-0.0462	0.0165	0.9585
43.4638	1.7566	8.1976	1.2981	-2.541	-1.6871	10.6455	-28.2003	715.1009	-58.9353	249.9601	79.6622	799.4264	-0.0592	0.0182	-0.0073	-0.0462	0.0165	0.9585
43.4776	0.90144	5.5414	0.76568	-1.7373	-1.0587	7.0195	-26.2999	716.8238	-56.6794	250.5326	75.2571	795.4165	-0.0592	0.0182	-0.0073	-0.0462	0.0165	0.9585
43.4914	0.27004	3.529	0.36222	-1.1297	-0.57045	4.2655	-23.734	721.2234	-54.6625	252.1531	70.999	793.9392	-0.0592	0.0182	-0.0073	-0.0462	0.0165	0.9585
43.5051	-0.16093	2.1502	0.086406	-0.71605	-0.22849	2.3798	-20.6755	728.8221	-53.0717	254.9565	67.166	795.725	-0.0592	0.0182	-0.0073	-0.0462	0.0165	0.9585
43.5189	-0.43048	1.3072	-0.080928	-0.46633	-0.017646	1.2319	-17.379	739.5452	-52.0524	258.8534	63.9848	800.8507	-0.0592	0.0182	-0.0073	-0.0462	0.0165	0.9585
43.5327	-0.58306	0.85087	-0.16389	-0.33234	0.085243	0.61918	-14.0978	752.6507	-51.6584	263.5219	61.5743	808.6679	-0.0592	0.0182	-0.0073	-0.0462	0.0165	0.9585
43.5465	-0.67386	0.61621	-0.18536	-0.2604	0.099606	0.3301	-11.0121	766.8176	-51.8798	268.4498	59.9562	817.8872	-0.0592	0.0182	-0.0073	-0.0462	0.0165	0.9585
43.5603	-0.73308	0.42996	-0.16542	-0.19554	0.046492	0.13912	-8.216	780.3641	-52.6215	273.0197	59.0365	826.8253	-0.0592	0.0182	-0.0073	-0.0462	0.0165	0.9585
43.5741	-0.79017	0.14278	-0.11089	-0.087218	-0.064918	-0.14299	-5.7161	791.5443	-53.7571	276.6131	58.6657	833.7115	-0.0592	0.0182	-0.0073	-0.0462	0.0165	0.9585
43.5879	-0.85509	-0.3754	-0.036834	0.11088	-0.20991	-0.68896	-3.4848	798.893	-55.1189	278.7304	58.6534	837.052	-0.0592	0.0182	-0.0073	-0.0462	0.0165	0.9585
43.6016	-0.92475	-1.235	0.057326	0.43918	-0.37513	-1.6443	-1.4985	801.4789	-56.5624	279.0741	58.8421	835.898	-0.0592	0.0182	-0.0073	-0.0462	0.0165	0.9585
43.6154	-0.98025	-2.4801	0.15036	0.91698	-0.52502	-3.0675	0.2615	799.037	-57.9667	277.5887	59.1027	829.9671	-0.0592	0.0182	-0.0073	-0.0462	0.0165	0.9585
43.6292	-0.9612	-4.0854	0.23209	1.5356	-0.62166	-4.9354	1.8052	792.0111	-59.2683	274.465	59.3651	819.6829	-0.0592	0.0182	-0.0073	-0.0462	0.0165	0.9585
43.643	-0.79156	-5.8984	0.27491	2.237	-0.60259	-7.0642	3.165	781.4784	-60.4569	270.109	59.6107	806.0926	-0.0592	0.0182	-0.0073	-0.0462	0.0165	0.9585
43.6568	-0.37287	-7.5727	0.25379	2.8885	-0.40149	-9.0524	4.4	768.9338	-61.5727	265.0659	59.8613	790.6533	-0.0592	0.0182	-0.0073	-0.0462	0.0165	0.9585
43.6706	0.41412	-8.5227	0.12947	3.2629	0.069585	-10.2166	5.5809	755.9648	-62.662	259.9057	60.1375	774.9081	-0.0592	0.0182	-0.0073	-0.0462	0.0165	0.9585
43.6844	1.6733	-7.8664	-0.14767	3.0148	0.90565	-9.4981	6.7979	743.9437	-63.747	255.1167	60.4293	760.1834	-0.0592	0.0182	-0.0073	-0.0462	0.0165	0.9585
43.6981	3.4823	-4.3888	-0.62241	1.6666	2.1855	-5.4455	8.1421	733.8026	-64.8213	251.0289	60.6952	747.3788	-0.0592	0.0182	-0.0073	-0.0462	0.0165	0.9585
43.7119	5.8325	3.441	-1.3314	-1.3805	3.942	3.7656	9.6922	725.8952	-65.8474	247.7683	60.8633	736.8236	-0.0592	0.0182	-0.0073	-0.0462	0.0165	0.9585
43.7257	8.5669	17.3208	-2.2831	-6.7915	6.1133	20.1632	11.4784	719.9861	-66.7607	245.2552	60.8527	728.2797	-0.0592	0.0182	-0.0073	-0.0462	0.0165	0.9585
43.7395	11.3079	38.8186	-3.4338	-15.1808	8.4861	45.6198	13.449	715.3015	-67.4554	243.2203	60.577	721.0143	-0.0592	0.0182	-0.0073	-0.0462	0.0165	0.9585
43.7533	13.3319	68.8593	-4.6563	-26.9088	10.6176	81.2493	15.469	710.5799	-67.7885	241.2249	59.9478	713.8421	-0.0592	0.0182	-0.0073	-0.0462	0.0165	0.9585
43.7671	13.5441	106.9492	-5.6924	-41.7807	11.7708	126.4802	17.3465	704.1432	-67.5872	238.689	58.8733	705.1813	-0.0592	0.0182	-0.0073	-0.0462	0.0165	0.9585
43.7809	10.6859	150.3694	-6.1494	-58.7315	10.9965	178.1143	18.9059	694.0674	-66.6884	234.9497	57.2706	693.2036	-0.0592	0.0182	-0.0073	-0.0462	0.0165	0.9585
43.7946	4.7102	194.3992	-5.3896	-75.8838	7.5446	230.5758	20.0597	678.5247	-64.9821	229.3842	55.0814	676.1394	-0.0592	0.0182	-0.0073	-0.0462	0.0165	0.9585
43.8084	-2.6628	234.2795	-2.8731	-91.3506	1.5452	278.0787	20.7977	656.2851	-62.467	221.5773	52.3197	652.7655	-0.0592	0.0182	-0.0073	-0.0462	0.0165	0.9585
43.8222	-9.7968	268.2643	0.87009	-104.4493	-5.7248	318.2693	21.2014	626.9773	-59.2761	211.4016	49.0889	622.6717	-0.0592	0.0182	-0.0073	-0.0462	0.0165	0.9585
43.836	-15.7858	297.6706	5.4928	-115.6869	-13.4554	352.5428	21.4209	590.9434	-55.6174	198.9725	45.5286	586.1455	-0.0592	0.0182	-0.0073	-0.0462	0.0165	0.9585
43.8498	-20.2626	325.0412	10.3899	-126.0647	-20.8111	383.7976	21.5891	548.957	-51.5818	184.5618	41.6694	543.9023	-0.0592	0.0182	-0.0073	-0.0462	0.0165	0.9585
43.8636	-23.3367	352.8736	15.4128	-136.5355	-27.6132	414.9772	21.7711	501.9283	-47.0971	168.5009	37.4221	496.8051	-0.0592	0.0182	-0.0073	-0.0462	0.0165	0.9585
43.8774	-25.2158	382.9217	20.2735	-147.7656	-33.6384	448.0864	21.9142	450.8118	-42.0204	151.1356	32.6702	445.798	-0.0592	0.0182	-0.0073	-0.0462	0.0165	0.9585
43.8911	-26.1927	416.2676	25.059	-160.1284	-39.0868	484.4325	21.8694	396.5876	-36.3115	132.8099	27.4169	391.8589	-0.0592	0.0182	-0.0073	-0.0462	0.0165	0.9585
43.9049	-26.4883	453.433	29.782	-173.7726	-44.1014	524.6656	21.4078	340.4003	-30.0917	113.908	21.8329	336.1238	-0.0592	0.0182	-0.0073	-0.0462	0.0165	0.9585
43.9187	-26.2617	494.1818	34.7344	-188.5532	-49.085	568.6073	20.2932	283.7081	-23.6778	94.9041	16.267	280.041	-0.0592	0.0182	-0.0073	-0.0462	0.0165	0.9585
43.9325	-25.7216	537.4375	40.0627	-204.0302	-54.3113	615.0995	18.4094	228.3495	-17.4817	76.3911	11.1192	225.4056	-0.0592	0.0182	-0.0073	-0.0462	0.0165	0.9585
43.9463	-25.0972	581.5482	45.8754	-219.5824	-59.9984	662.2931	15.786	176.4197	-11.9295	59.0444	6.7641	174.2466	-0.0592	0.0182	-0.0073	-0.0462	0.0165	0.9585
43.9601	-24.5969	624.8472	51.9565	-234.6233	-66.0032	708.3377	12.6582	129.934	-7.3396	43.5194	3.4222	128.4946	-0.0592	0.0182	-0.0073	-0.0462	0.0165	0.9585
